<svg width="22" height="22" fill="none" stroke="currentColor" stroke-width="2"
  stroke-linecap="round" stroke-linejoin="round">
  <circle cx="12" cy="12" r="3"/>
  <path d="M19.4 15a1.6 1.6 0 0 0 .3 1.7l.1.1a2 2 0 0 1-2.8 2.8l-.1-.1a1.6 1.6 0 0 0-1.7-.3c-.6.2-1.3.3-2 .3s-1.4-.1-2-.3a1.6 1.6 0 0 0-1.7.3l-.1.1a2 2 0 1 1-2.8-2.8l.1-.1a1.6 1.6 0 0 0 .3-1.7 6.7 6.7 0 0 1 0-4 1.6 1.6 0 0 0-.3-1.7l-.1-.1A2 2 0 1 1 7 4.4l.1.1a1.6 1.6 0 0 0 1.7.3c.6-.2 1.3-.3 2-.3s1.4.1 2 .3a1.6 1.6 0 0 0 1.7-.3l.1-.1a2 2 0 1 1 2.8 2.8l-.1.1a1.6 1.6 0 0 0-.3 1.7c.2.6.3 1.3.3 2s-.1 1.4-.3 2z"/>
</svg>
